<svg width="18" height="18" viewBox="0 0 18 18" fill="none" xmlns="http://www.w3.org/2000/svg">
<path fill-rule="evenodd" clip-rule="evenodd" d="M14.1347 9.11703C14.1347 12.0472 11.8287 14.421 8.98667 14.421C6.14267 14.421 3.83866 12.0462 3.83866 9.11703C3.83866 8.76776 3.87166 8.42673 3.93466 8.09703H0.472656V15.1484C0.472656 16.663 1.66266 17.8901 3.13366 17.8901H14.8417C16.3107 17.8901 17.5027 16.663 17.5027 15.1484V8.09703H14.0397C14.1007 8.42673 14.1347 8.76776 14.1347 9.11703ZM14.8397 0.343994H3.1317C1.6607 0.343994 0.470703 1.57109 0.470703 3.0846V6.056H4.7817C5.71371 4.69909 7.24871 3.812 8.98671 3.812C10.7227 3.812 12.2577 4.69806 13.1907 6.056H17.5017V3.0846C17.5007 1.57212 16.3087 0.343994 14.8397 0.343994ZM16.1407 3.73061C16.1407 4.00055 15.9277 4.22 15.6657 4.22H14.2397C13.9787 4.22 13.7646 4.00055 13.7646 3.73061V2.26139C13.7646 1.99145 13.9787 1.77097 14.2397 1.77097H15.6657C15.9267 1.77097 16.1407 1.99145 16.1407 2.26139V3.73061ZM12.1537 9.11702C12.1537 7.314 10.7357 5.852 8.98572 5.852C7.23573 5.852 5.81775 7.314 5.81775 9.11702C5.81775 10.9201 7.23573 12.381 8.98572 12.381C10.7357 12.381 12.1537 10.9201 12.1537 9.11702Z" fill="#D1D1D6"/>
</svg>
