<svg width="20" height="20" viewBox="0 0 20 20" fill="none" xmlns="http://www.w3.org/2000/svg">
<path fill-rule="evenodd" clip-rule="evenodd" d="M11.4402 11.1182C11.1352 10.9348 10.7112 10.9348 10.3672 10.9348H9.23718V13.3344H10.2752C10.6592 13.3344 11.1482 13.3622 11.4792 13.1232C11.7832 12.913 11.9562 12.4988 11.9562 12.1052C11.9562 11.7385 11.7442 11.3006 11.4402 11.1182ZM11.0142 9.06894C11.2662 8.87215 11.3982 8.51979 11.3982 8.19525C11.3982 7.84289 11.2392 7.50495 10.9482 7.32258C10.6442 7.13919 10.0882 7.18143 9.73117 7.18143H9.23816V9.29355H9.88917C10.2602 9.29458 10.6962 9.32239 11.0142 9.06894ZM16.5791 0.32373H4.25215C2.40616 0.32373 0.910156 1.86506 0.910156 3.767V16.4665C0.910156 18.3685 2.40616 19.9098 4.25215 19.9098H16.5791C18.4241 19.9098 19.9211 18.3685 19.9211 16.4665V3.767C19.9211 1.86506 18.4241 0.32373 16.5791 0.32373ZM10.9321 15.122H7.0481V5.46494H11.2911C12.5201 5.46494 13.6541 6.27064 13.6541 7.69246C13.6541 8.79076 13.0581 9.54288 12.3001 9.77573V9.80355C13.4251 10.0426 14.2281 10.6731 14.2281 12.1908C14.2291 13.5992 13.3001 15.122 10.9321 15.122Z" fill="#D1D1D6"/>
</svg>
