<svg width="15" height="15" viewBox="0 0 15 15" fill="none" xmlns="http://www.w3.org/2000/svg">
<path fill-rule="evenodd" clip-rule="evenodd" d="M7.5 15C3.35786 15 0 11.6421 0 7.5C0 3.35786 3.35786 0 7.5 0C11.6421 0 15 3.35786 15 7.5C15 11.6421 11.6421 15 7.5 15ZM7.5 13.6364C10.889 13.6364 13.6364 10.889 13.6364 7.5C13.6364 4.11098 10.889 1.36364 7.5 1.36364C4.11098 1.36364 1.36364 4.11098 1.36364 7.5C1.36364 10.889 4.11098 13.6364 7.5 13.6364ZM7.5 2.72727C7.87656 2.72727 8.18182 3.03253 8.18182 3.40909V7.21758L10.0276 9.06334C10.2938 9.3296 10.2938 9.76131 10.0276 10.0276C9.76131 10.2938 9.3296 10.2938 9.06334 10.0276L7.01788 7.98212C6.89002 7.85425 6.81818 7.68083 6.81818 7.5V3.40909C6.81818 3.03253 7.12344 2.72727 7.5 2.72727Z" fill="#FF3B30"/>
</svg>
