<svg width="18" height="18" viewBox="0 0 18 18" fill="none" xmlns="http://www.w3.org/2000/svg">
<path fill-rule="evenodd" clip-rule="evenodd" d="M12.6047 15.2327L11.5714 14.3822L11.5179 14.4226C10.6401 15.0888 9.55727 15.4261 8.29868 15.4261C6.9381 15.4261 5.72747 14.9753 4.79723 14.1225C3.51017 12.9426 3.51017 11.6462 3.5107 9.29324V9.09288C3.51017 6.73944 3.51017 5.44299 4.79723 4.26333C5.74117 3.39801 6.91886 2.95947 8.29868 2.95947C11.3719 2.95947 12.8171 4.91629 13.1457 6.7512C13.1462 6.75426 13.2139 7.04892 13.2482 7.28762C13.2782 7.49181 13.2867 7.73944 13.2893 7.86441H11.3693C11.3693 7.73382 11.3645 7.46957 11.3295 7.21989C11.3005 7.01672 11.2372 6.72896 11.2338 6.7144C10.8728 5.2802 9.83028 4.49027 8.29868 4.49027C7.49915 4.49027 6.74942 4.7788 6.24082 5.28199C5.55671 5.96305 5.39938 6.69395 5.39938 9.19306C5.39938 11.706 5.55671 12.4404 6.24082 13.1215C6.73835 13.6137 7.48808 13.8959 8.29868 13.8959C8.99834 13.8959 9.64055 13.7067 10.1552 13.3487L10.2419 13.2886L9.07002 12.3242L10.1763 11.0599L11.1772 11.8838L11.2046 11.7486C11.2515 11.5171 11.2741 11.2685 11.2741 10.9894V10.5355H13.1626V10.5882C13.1626 11.6561 13.0192 12.4169 12.6977 13.0551L12.6692 13.1113L13.7107 13.9682L12.6047 15.2327ZM8.61047 0.692871C3.9161 0.692871 0.110474 4.49824 0.110474 9.19287C0.110474 13.8872 3.9161 17.6929 8.61047 17.6929C13.3048 17.6929 17.1105 13.8872 17.1105 9.19287C17.1105 4.49824 13.3048 0.692871 8.61047 0.692871Z" fill="#103D97"/>
</svg>
