<svg width="160" height="51" viewBox="0 0 160 51" fill="none" xmlns="http://www.w3.org/2000/svg">
<g clip-path="url(#clip0)">
<path d="M57.3892 9.41364H64.0514V33.0188H78.4861V38.5045H57.3892V9.41364Z" fill="white"/>
<path d="M92.1234 38.837C89.7928 38.837 87.6955 38.3522 85.8314 37.3825C83.9943 36.3851 82.5549 35.0137 81.5133 33.2682C80.4717 31.5228 79.9506 29.5418 79.9506 27.3253C79.9506 25.1089 80.4717 23.1279 81.5133 21.3825C82.5549 19.637 83.9943 18.2794 85.8314 17.3098C87.6955 16.3124 89.7928 15.8137 92.1234 15.8137C94.454 15.8137 96.5372 16.3124 98.3743 17.3098C100.211 18.2794 101.651 19.637 102.692 21.3825C103.734 23.1279 104.255 25.1089 104.255 27.3253C104.255 29.5418 103.734 31.5228 102.692 33.2682C101.651 35.0137 100.211 36.3851 98.3743 37.3825C96.5372 38.3522 94.454 38.837 92.1234 38.837ZM92.1234 33.5176C93.7684 33.5176 95.112 32.9635 96.1536 31.8552C97.2229 30.7193 97.7575 29.2093 97.7575 27.3253C97.7575 25.4414 97.2229 23.9453 96.1536 22.837C95.112 21.7011 93.7684 21.1331 92.1234 21.1331C90.4784 21.1331 89.1213 21.7011 88.0521 22.837C86.9829 23.9453 86.4482 25.4414 86.4482 27.3253C86.4482 29.2093 86.9829 30.7193 88.0521 31.8552C89.1213 32.9635 90.4784 33.5176 92.1234 33.5176Z" fill="white"/>
<path d="M131.367 16.1461V34.7643C131.367 38.8648 130.312 41.9124 128.201 43.9072C126.09 45.902 123.005 46.8994 118.948 46.8994C116.809 46.8994 114.78 46.6362 112.861 46.1098C110.942 45.5833 109.352 44.8214 108.091 43.824L110.64 39.1695C111.573 39.9453 112.752 40.5548 114.177 40.9981C115.603 41.469 117.029 41.7046 118.454 41.7046C120.675 41.7046 122.306 41.192 123.348 40.1669C124.417 39.1695 124.952 37.6457 124.952 35.5955V34.6396C123.28 36.4959 120.949 37.424 117.961 37.424C115.932 37.424 114.068 36.9807 112.368 36.0942C110.696 35.1799 109.366 33.9054 108.379 32.2708C107.392 30.6362 106.898 28.7522 106.898 26.6189C106.898 24.4855 107.392 22.6015 108.379 20.9669C109.366 19.3323 110.696 18.0716 112.368 17.1851C114.068 16.2708 115.932 15.8137 117.961 15.8137C121.168 15.8137 123.609 16.8803 125.281 19.0137V16.1461H131.367ZM119.236 32.1046C120.936 32.1046 122.32 31.6059 123.389 30.6085C124.486 29.5833 125.034 28.2535 125.034 26.6189C125.034 24.9842 124.486 23.6682 123.389 22.6708C122.32 21.6457 120.936 21.1331 119.236 21.1331C117.536 21.1331 116.138 21.6457 115.041 22.6708C113.944 23.6682 113.396 24.9842 113.396 26.6189C113.396 28.2535 113.944 29.5833 115.041 30.6085C116.138 31.6059 117.536 32.1046 119.236 32.1046Z" fill="white"/>
<path d="M147.866 38.837C145.536 38.837 143.438 38.3522 141.574 37.3825C139.737 36.3851 138.298 35.0137 137.256 33.2682C136.215 31.5228 135.694 29.5418 135.694 27.3253C135.694 25.1089 136.215 23.1279 137.256 21.3825C138.298 19.637 139.737 18.2794 141.574 17.3098C143.438 16.3124 145.536 15.8137 147.866 15.8137C150.197 15.8137 152.28 16.3124 154.117 17.3098C155.954 18.2794 157.394 19.637 158.435 21.3825C159.477 23.1279 159.998 25.1089 159.998 27.3253C159.998 29.5418 159.477 31.5228 158.435 33.2682C157.394 35.0137 155.954 36.3851 154.117 37.3825C152.28 38.3522 150.197 38.837 147.866 38.837ZM147.866 33.5176C149.511 33.5176 150.855 32.9635 151.897 31.8552C152.966 30.7193 153.5 29.2093 153.5 27.3253C153.5 25.4414 152.966 23.9453 151.897 22.837C150.855 21.7011 149.511 21.1331 147.866 21.1331C146.221 21.1331 144.864 21.7011 143.795 22.837C142.726 23.9453 142.191 25.4414 142.191 27.3253C142.191 29.2093 142.726 30.7193 143.795 31.8552C144.864 32.9635 146.221 33.5176 147.866 33.5176Z" fill="white"/>
<path d="M49.4779 25.1929C49.4779 39 38.4019 50.1929 24.739 50.1929C11.076 50.1929 0 39 0 25.1929C0 11.3857 11.076 0.192871 24.739 0.192871C38.4019 0.192871 49.4779 11.3857 49.4779 25.1929Z" fill="white"/>
<path d="M14.1905 9.74609H20.8527V33.3513H35.2874V38.837H14.1905V9.74609Z" fill="#103D97"/>
</g>
<defs>
<clipPath id="clip0">
<rect width="160" height="50" fill="white" transform="translate(0 0.192871)"/>
</clipPath>
</defs>
</svg>
