<svg width="160" height="50" viewBox="0 0 160 50" fill="none" xmlns="http://www.w3.org/2000/svg">
<path d="M57.3892 9.22076H64.0514V32.826H78.4861V38.3117H57.3892V9.22076Z" fill="#DADADA"/>
<path d="M92.1234 38.6441C89.7928 38.6441 87.6955 38.1593 85.8314 37.1896C83.9943 36.1922 82.5549 34.8208 81.5133 33.0753C80.4717 31.3299 79.9506 29.3489 79.9506 27.1324C79.9506 24.916 80.4717 22.935 81.5133 21.1896C82.5549 19.4441 83.9943 18.0865 85.8314 17.1169C87.6955 16.1195 89.7928 15.6208 92.1234 15.6208C94.454 15.6208 96.5372 16.1195 98.3743 17.1169C100.211 18.0865 101.651 19.4441 102.692 21.1896C103.734 22.935 104.255 24.916 104.255 27.1324C104.255 29.3489 103.734 31.3299 102.692 33.0753C101.651 34.8208 100.211 36.1922 98.3743 37.1896C96.5372 38.1593 94.454 38.6441 92.1234 38.6441ZM92.1234 33.3247C93.7684 33.3247 95.112 32.7706 96.1536 31.6623C97.2229 30.5264 97.7575 29.0164 97.7575 27.1324C97.7575 25.2485 97.2229 23.7524 96.1536 22.6441C95.112 21.5082 93.7684 20.9402 92.1234 20.9402C90.4784 20.9402 89.1213 21.5082 88.0521 22.6441C86.9829 23.7524 86.4482 25.2485 86.4482 27.1324C86.4482 29.0164 86.9829 30.5264 88.0521 31.6623C89.1213 32.7706 90.4784 33.3247 92.1234 33.3247Z" fill="#DADADA"/>
<path d="M131.367 15.9532V34.5714C131.367 38.6719 130.312 41.7195 128.201 43.7143C126.09 45.7091 123.005 46.7065 118.948 46.7065C116.809 46.7065 114.78 46.4433 112.861 45.9169C110.942 45.3904 109.352 44.6285 108.091 43.6311L110.64 38.9766C111.573 39.7524 112.752 40.3619 114.177 40.8052C115.603 41.2761 117.029 41.5117 118.454 41.5117C120.675 41.5117 122.306 40.9991 123.348 39.974C124.417 38.9766 124.952 37.4528 124.952 35.4026V34.4467C123.28 36.303 120.949 37.2311 117.961 37.2311C115.932 37.2311 114.068 36.7878 112.368 35.9013C110.696 34.987 109.366 33.7125 108.379 32.0779C107.392 30.4433 106.898 28.5593 106.898 26.426C106.898 24.2926 107.392 22.4086 108.379 20.774C109.366 19.1394 110.696 17.8787 112.368 16.9922C114.068 16.0779 115.932 15.6208 117.961 15.6208C121.168 15.6208 123.609 16.6874 125.281 18.8208V15.9532H131.367ZM119.236 31.9117C120.936 31.9117 122.32 31.413 123.389 30.4156C124.486 29.3904 125.034 28.0606 125.034 26.426C125.034 24.7913 124.486 23.4753 123.389 22.4779C122.32 21.4528 120.936 20.9402 119.236 20.9402C117.536 20.9402 116.138 21.4528 115.041 22.4779C113.944 23.4753 113.396 24.7913 113.396 26.426C113.396 28.0606 113.944 29.3904 115.041 30.4156C116.138 31.413 117.536 31.9117 119.236 31.9117Z" fill="#DADADA"/>
<path d="M147.866 38.6441C145.536 38.6441 143.438 38.1593 141.574 37.1896C139.737 36.1922 138.298 34.8208 137.256 33.0753C136.215 31.3299 135.694 29.3489 135.694 27.1324C135.694 24.916 136.215 22.935 137.256 21.1896C138.298 19.4441 139.737 18.0865 141.574 17.1169C143.438 16.1195 145.536 15.6208 147.866 15.6208C150.197 15.6208 152.28 16.1195 154.117 17.1169C155.954 18.0865 157.394 19.4441 158.435 21.1896C159.477 22.935 159.998 24.916 159.998 27.1324C159.998 29.3489 159.477 31.3299 158.435 33.0753C157.394 34.8208 155.954 36.1922 154.117 37.1896C152.28 38.1593 150.197 38.6441 147.866 38.6441ZM147.866 33.3247C149.511 33.3247 150.855 32.7706 151.897 31.6623C152.966 30.5264 153.5 29.0164 153.5 27.1324C153.5 25.2485 152.966 23.7524 151.897 22.6441C150.855 21.5082 149.511 20.9402 147.866 20.9402C146.221 20.9402 144.864 21.5082 143.795 22.6441C142.726 23.7524 142.191 25.2485 142.191 27.1324C142.191 29.0164 142.726 30.5264 143.795 31.6623C144.864 32.7706 146.221 33.3247 147.866 33.3247Z" fill="#DADADA"/>
<path d="M49.4779 25C49.4779 38.8071 38.4019 50 24.739 50C11.076 50 0 38.8071 0 25C0 11.1929 11.076 0 24.739 0C38.4019 0 49.4779 11.1929 49.4779 25Z" fill="#DADADA"/>
<path d="M14.1905 9.55319H20.8527V33.1584H35.2874V38.6441H14.1905V9.55319Z" fill="white"/>
</svg>
