<svg width="20" height="21" viewBox="0 0 20 21" fill="none" xmlns="http://www.w3.org/2000/svg">
<path fill-rule="evenodd" clip-rule="evenodd" d="M19.1262 6.99052C18.6436 6.99052 18.2524 6.5993 18.2524 6.11671V2.98339L13.6274 7.6084C13.2862 7.94965 12.7329 7.94965 12.3916 7.6084C12.0504 7.26716 12.0504 6.71389 12.3916 6.37264L17.0167 1.74763H13.8833C13.4007 1.74763 13.0095 1.35641 13.0095 0.873815C13.0095 0.39122 13.4007 0 13.8833 0H19.1262C19.2447 0 19.3577 0.0235804 19.4607 0.0663042C19.5638 0.108946 19.6603 0.172156 19.7441 0.255935C19.8279 0.339713 19.8911 0.436271 19.9337 0.539333C19.971 0.629248 19.9937 0.726736 19.9989 0.828849C19.9997 0.843742 20 0.858734 20 0.873815V0.874731V6.11671C20 6.5993 19.6088 6.99052 19.1262 6.99052ZM19.1262 17.4028C19.1292 18.141 18.8208 18.8461 18.2769 19.3452C17.733 19.8442 17.0039 20.0907 16.2531 20.0227C13.4283 19.7158 10.7149 18.7505 8.33778 17.2089C6.11822 15.7985 4.23642 13.9167 2.83016 11.7036C1.27877 9.30881 0.313305 6.58224 0.0106481 3.73117C-0.0555786 2.99831 0.189263 2.27136 0.685364 1.72789C1.18146 1.18442 1.88314 0.874489 2.61981 0.873795L5.23266 0.873838C6.54844 0.860888 7.66995 1.82538 7.8552 3.13632C7.95723 3.9099 8.14644 4.66946 8.4185 5.39853C8.7786 6.35651 8.54828 7.43645 7.82522 8.16763L7.19862 8.79423C8.2261 10.4061 9.59387 11.7739 11.2058 12.8014L11.8358 12.1713C12.5635 11.4517 13.6435 11.2214 14.5995 11.5807C15.3305 11.8535 16.0901 12.0428 16.8715 12.1458C18.1856 12.3312 19.1531 13.4691 19.1262 14.7947L19.1262 17.4028ZM16.6351 13.8774C17.0667 13.9383 17.3898 14.3197 17.3785 14.7849V17.4064C17.3796 17.656 17.2768 17.891 17.0955 18.0574C16.9142 18.2237 16.6711 18.3059 16.4261 18.2838C13.8888 18.0079 11.4365 17.1355 9.28186 15.7383C7.27205 14.4611 5.57384 12.7629 4.30104 10.7599C2.89476 8.58901 2.02217 6.12474 1.74984 3.56026C1.72911 3.32961 1.81072 3.08729 1.97609 2.90613C2.14145 2.72498 2.37534 2.62167 2.62063 2.62144L5.24125 2.62144C5.68845 2.61708 6.06228 2.93858 6.12367 3.37288C6.24183 4.2691 6.46301 5.15696 6.78188 6.0115C6.90265 6.33279 6.82588 6.69277 6.58601 6.93534L5.47971 8.04162C5.20156 8.31977 5.14355 8.74948 5.33799 9.09142C6.65966 11.4158 8.5842 13.3403 10.9086 14.662C11.2505 14.8564 11.6802 14.7984 11.9584 14.5203L13.0681 13.4105C13.3072 13.1741 13.6672 13.0973 13.9865 13.2174C14.843 13.537 15.7309 13.7582 16.6351 13.8774Z" fill="#FF3B30"/>
</svg>
